<svg xmlns="http://www.w3.org/2000/svg" width="732.724" height="202.324" viewBox="0 0 732.724 202.324">
  <g id="Group_6319" data-name="Group 6319" transform="translate(10266 3101)">
    <path id="Subtraction_2" data-name="Subtraction 2" d="M473.93,43.606H0V.995H473.93V43.6ZM178.384,30.062h0l-1.224,4.979a17.341,17.341,0,0,0,7.55,1.621c7.929,0,10.754-4.269,10.754-8.264,0-3.725-2.134-6.176-6.918-7.946-3.436-1.3-4.942-2.051-4.942-3.753,0-1.561,1.52-2.569,3.874-2.569a12.811,12.811,0,0,1,5.573,1.261l1.346-4.858a16.458,16.458,0,0,0-6.8-1.346c-6.03,0-10.082,3.226-10.082,8.028,0,3.532,2.461,6.178,7.314,7.865a11.728,11.728,0,0,1,3.436,1.685,2.536,2.536,0,0,1,1.033,2.071c0,1.807-1.582,2.886-4.231,2.886a15.444,15.444,0,0,1-6.682-1.66ZM154.076,9.623v5.061h7.155V36.267h6.049V14.684h7.274V9.623ZM134,9.623V36.267h17V31.326H140.048V25h9.8V20.1h-9.8V14.564h10.4V9.623ZM115.744,25.79h1.818c2.579.041,3.626,1.079,4.31,4.271a33.07,33.07,0,0,0,1.857,6.205H129.9a40.076,40.076,0,0,1-1.495-4.982c-.222-.836-.451-1.7-.681-2.532-.745-2.718-1.876-4.3-3.558-4.979v-.12a7.06,7.06,0,0,0,4.7-6.561,6.753,6.753,0,0,0-2.451-5.575c-1.834-1.45-4.492-2.1-8.618-2.1a52.913,52.913,0,0,0-8.026.557V36.267h5.971V25.791Zm-26.48,3.637h7.629l2.056,6.84h6.484L97.169,9.623H89.264L81.117,36.267h6.25l1.9-6.839ZM60.413,16.578h0a99.935,99.935,0,0,0,4.626,9.409l5.692,10.28h6.325V9.623H71.522v7.788a98.179,98.179,0,0,0,.512,11.107h-.118a77.05,77.05,0,0,0-4.348-9.13L62.033,9.623H55V36.267H60.53V28.244c0-4.27-.078-8.073-.238-11.626l.119-.039ZM42.944,9.623V36.267h6.049V9.623ZM30.894,15.116h.12c0,4,.126,7.955.237,10.953l.4,10.2h5.89L36.076,9.623H28.209L25.36,18.479c-.976,3.319-1.915,7.032-2.53,9.562h-.118c-.509-2.677-1.225-5.7-2.254-9.524L17.85,9.623H9.824l-1.7,26.644H13.7l.474-10.12c.13-2.179.227-4.727.321-7.192V18.94c.048-1.27.1-2.583.152-3.824h.078c.582,3.192,1.461,6.98,2.414,10.395l2.847,10.323H24.69l3.242-10.4c1.1-3.339,2.179-7.1,2.963-10.317ZM344.418,31.528l-.85,2.822a13.526,13.526,0,0,0,6.652,1.664c6.733,0,9.122-4.041,9.122-7.5,0-3.612-1.926-5.83-6.648-7.655a12.379,12.379,0,0,1-3.939-2.122,3.7,3.7,0,0,1-1.242-2.9c0-1.945,1.518-3.907,4.908-3.907a10.309,10.309,0,0,1,4.949,1.24l.928-2.745a11.66,11.66,0,0,0-5.758-1.278c-4.963,0-8.429,2.91-8.429,7.076,0,3.378,2.187,5.724,6.881,7.385,3.579,1.378,4.909,2.782,4.909,5.18a4.05,4.05,0,0,1-1.435,3.21,6.158,6.158,0,0,1-4.017,1.238A11.963,11.963,0,0,1,344.418,31.528Zm-41,0-.851,2.822a13.524,13.524,0,0,0,6.651,1.664c6.735,0,9.124-4.041,9.124-7.5,0-3.612-1.926-5.829-6.649-7.655a12.4,12.4,0,0,1-3.94-2.122,3.693,3.693,0,0,1-1.243-2.9c0-1.945,1.518-3.907,4.91-3.907a10.319,10.319,0,0,1,4.949,1.24l.929-2.745a11.672,11.672,0,0,0-5.76-1.278c-4.963,0-8.429,2.91-8.429,7.076,0,3.377,2.187,5.724,6.881,7.385,3.579,1.378,4.91,2.781,4.91,5.18a4.051,4.051,0,0,1-1.434,3.21,6.155,6.155,0,0,1-4.015,1.238A11.951,11.951,0,0,1,303.419,31.528ZM425.933,12.933h.112c-.034,3.185.193,7.542.375,11.043l.011.206.661,11.446h3.285L428.755,9.566h-4.292l-4.641,12.609c-1.3,3.682-2.149,6.388-2.744,8.774h-.115c-.6-2.457-1.412-5.162-2.633-8.774L409.885,9.566h-4.293l-1.814,26.062h3.208l.695-11.176c.239-4.032.426-8.338.5-11.519h.078c.645,2.724,1.575,5.848,3.014,10.13l4.216,12.411h2.552l4.6-12.642c1.327-3.627,2.4-6.865,3.289-9.9ZM384.686,9.566V35.628H399.34V32.806H388.049v-9.4h10.129V20.627H388.049V12.393H398.76V9.566Zm-22.955,0v2.865h7.927v23.2h3.4v-23.2h7.963V9.566Zm-40.462,0,8.236,15.006V35.628h3.4v-11.1l8.738-14.967h-3.828l-3.75,7.192-.35.684c-.877,1.715-1.632,3.193-2.279,4.694h-.076c-.758-1.695-1.51-3.253-2.594-5.378L325.1,9.566Zm-84.083.056a12.359,12.359,0,0,0-9.168,3.674A13.3,13.3,0,0,0,224.41,23a12.678,12.678,0,0,0,3.206,9.015,11.263,11.263,0,0,0,8.573,3.407,14.814,14.814,0,0,0,6.913-1.45V30.875a12.164,12.164,0,0,1-6.446,1.676,8.382,8.382,0,0,1-6.412-2.635,10.073,10.073,0,0,1-2.45-7.114,10.52,10.52,0,0,1,2.627-7.5,8.969,8.969,0,0,1,6.8-2.78A11.988,11.988,0,0,1,243.1,14V10.637A14.984,14.984,0,0,0,237.187,9.622Zm55.188,3.931h.081c-.16,1.9-.242,3.557-.242,4.915V35h3.207V10.04h-4.157l-7.493,17.048c-.227.55-.622,1.6-1.176,3.127h-.113a22.268,22.268,0,0,0-1.111-3.062L274.006,10.04h-4.367V35h3.078V18.613c0-2.2-.054-3.9-.161-5.06h.1a16.86,16.86,0,0,0,.742,2.659L281.611,35H283.4l8.234-18.933a15.274,15.274,0,0,0,.74-2.513ZM251.319,24.494h2.32a4.1,4.1,0,0,1,2.465.749,9.717,9.717,0,0,1,2.272,2.828L262.517,35h3.8l-4.673-7.476a18.622,18.622,0,0,0-1.942-2.756,5.149,5.149,0,0,0-1.78-1.241v-.08c3.678-1.027,5.543-3.293,5.543-6.736A6.13,6.13,0,0,0,261.4,11.8a8.559,8.559,0,0,0-5.7-1.757h-7.6V35h3.223V24.5Zm-155.3.425H90.132l1.582-5.652c.259-.922.506-2.017.744-3.075.165-.733.321-1.425.481-2.063h.079c.059.235.119.478.181.727l.01.038c.354,1.423.754,3.036,1.154,4.373l1.659,5.651Zm159.1-3.245h-3.8V12.86h3.851a5.433,5.433,0,0,1,3.658,1.1A3.842,3.842,0,0,1,260.084,17a4.435,4.435,0,0,1-1.378,3.383A5.055,5.055,0,0,1,255.121,21.675Zm-137.006-.233h-2.372V14.088a15.6,15.6,0,0,1,2.728-.2,5.182,5.182,0,0,1,3.251.953,3.369,3.369,0,0,1,1.176,2.764C122.9,19.972,121.066,21.442,118.115,21.442Z" transform="translate(-10261.729 -2987)" fill="#fafafa" stroke="rgba(0,0,0,0)" stroke-miterlimit="10" stroke-width="1"/>
    <path id="Path_17391" data-name="Path 17391" d="M273.445,89.207s-8.2,2.838-8.2,11.368v59.216a5.406,5.406,0,0,1-5.395,5.378h0a26.949,26.949,0,0,0,26.932-26.91V84.9Z" transform="translate(-10320.583 -3145.476)" fill="#fafafa"/>
    <g id="Group_6309" data-name="Group 6309" transform="translate(-10320.583 -3145.476)">
      <path id="Path_17392" data-name="Path 17392" d="M377.317,62.142a14.347,14.347,0,0,1-26.868,7.024,14,14,0,0,1-1.848-7.024,14.358,14.358,0,1,1,28.716,0" fill="#fafafa"/>
    </g>
    <g id="Group_6310" data-name="Group 6310" transform="translate(-10320.583 -3145.476)">
      <path id="Path_17393" data-name="Path 17393" d="M169.786,62.137a14.363,14.363,0,0,1-26.893,7.034,14.124,14.124,0,0,1-1.831-7.034,14.362,14.362,0,0,1,28.724,0" fill="#fafafa"/>
    </g>
    <g id="Group_6311" data-name="Group 6311" transform="translate(-10320.583 -3145.476)">
      <path id="Path_17394" data-name="Path 17394" d="M135.92,62.137a14.364,14.364,0,0,1-26.894,7.034,14.124,14.124,0,0,1-1.831-7.034,14.362,14.362,0,0,1,28.725,0" fill="#fafafa"/>
    </g>
    <path id="Path_17395" data-name="Path 17395" d="M232.9,54.478s-8.2,2.83-8.2,11.365v81.585h21.537V50.163Z" transform="translate(-10320.583 -3145.476)" fill="#fafafa"/>
    <g id="Group_6313" data-name="Group 6313" transform="translate(-10320.583 -3145.476)">
      <g id="Group_6312" data-name="Group 6312">
        <path id="Path_17396" data-name="Path 17396" d="M423.294,93.306a26.959,26.959,0,0,0-26.936,26.941,27.363,27.363,0,0,0,.6,5.386H373.946V93.847l-13.354,4.327s-7.093,2.521-8.037,9.808v17.651H324.9c0-22.193.006-54.3.006-59.8,0-8.534-8.221-11.369-8.221-11.369l-13.346-4.306v97.011h119.95a26.934,26.934,0,0,0,0-53.868Zm-4.906,29.67a5.435,5.435,0,0,1-.707-2.729,5.594,5.594,0,1,1,.707,2.729Z" fill="#fafafa"/>
        <path id="Path_17397" data-name="Path 17397" d="M479.95,54.469s-8.221,2.835-8.221,11.369v43.627a16.172,16.172,0,0,1-16.159,16.168h-2.389a30.467,30.467,0,0,1-15.807,21.541h18.2a37.727,37.727,0,0,0,37.7-37.426h.014V50.163Z" fill="#fafafa"/>
      </g>
      <path id="Path_17398" data-name="Path 17398" d="M511.218,147.175V50.163l13.346,4.306s8.221,2.835,8.221,11.369-.009,81.337-.009,81.337Z" fill="#fafafa"/>
    </g>
    <path id="Path_17399" data-name="Path 17399" d="M194.4,97.989s-8.2,2.839-8.2,11.369v11.107a5.231,5.231,0,0,1-5.4,5.168H103.541c-21.957-1.179-36.126-18.449-36.126-39.51,0-16.914,11.214-31.3,26.16-36.933C71.7,54.439,54.583,74.077,54.583,97.556c0,27.507,22.609,49.82,48.958,49.82H180.8a26.949,26.949,0,0,0,26.932-26.911V93.684Z" transform="translate(-10320.583 -3145.476)" fill="#fafafa"/>
    <g id="Group_6314" data-name="Group 6314" transform="translate(-10320.583 -3145.476)">
      <path id="Path_17400" data-name="Path 17400" d="M719.881,89.927l6.4-13.681a176.347,176.347,0,0,1,18.235,15.409l-11.879,8.9A121.956,121.956,0,0,0,719.881,89.927ZM681.949,71.649,675,50.258a159.358,159.358,0,0,1,23.2,9.057l-.536,17.828A105.573,105.573,0,0,0,681.949,71.649ZM677.7,70.641a81.389,81.389,0,0,0-17.6-1.818L644.557,44.687a132.443,132.443,0,0,1,26.306,4.392ZM655.913,68.99a57.856,57.856,0,0,0-13.633,2.548L616.926,46.591a99.474,99.474,0,0,1,23.325-2.084Zm-17.394,3.924a42.472,42.472,0,0,0-12.536,7.853L590.221,57.836A72.867,72.867,0,0,1,612.775,47.59Zm-25.333,46.072-50.068-4.88A70.686,70.686,0,0,1,568.38,84.57l45.746,16.468A51.287,51.287,0,0,0,613.186,118.986Zm.832,5.224a79.974,79.974,0,0,0,8.44,22.441l-47.547,11.262c-6.578-13.191-10.292-26.032-11.437-38.061Zm11.665,27.922a111.305,111.305,0,0,0,14.161,17.862L603.46,197.218a156.957,156.957,0,0,1-25.2-33Zm19.1,22.661a123.728,123.728,0,0,0,20.8,15.374l-19.144,38.854a176.9,176.9,0,0,1-37.31-26.336Zm75.328,29.887,12.712,40.179a105.834,105.834,0,0,1-33.794,1.089l.682-42.589A77.458,77.458,0,0,0,720.112,204.68Zm4.885-.567a52.153,52.153,0,0,0,14.542-4.4l21.327,33.348a72.34,72.34,0,0,1-23.012,10.609Zm18.162-6.351A39.388,39.388,0,0,0,754.815,187.3l24.908,24.5a60.029,60.029,0,0,1-15.469,18.706Zm13.68-13.475a41.092,41.092,0,0,0,4.911-12.514l25.135,16a66.99,66.99,0,0,1-5.511,20.675Zm.9-47.688,20.135,1.737a113.907,113.907,0,0,1,7.029,20.795l-23.056-8.47A73.71,73.71,0,0,0,757.74,136.6Zm-1.578-3.688a94.4,94.4,0,0,0-6.785-12.287l16.181-4.117a140.145,140.145,0,0,1,10.7,18.364Zm-9.143-15.765a113.389,113.389,0,0,0-11.283-13.526l11.647-9.113A164.456,164.456,0,0,1,763.3,113.291Zm-24.1-43.323L716.24,87.384a121.492,121.492,0,0,0-14.53-8.367L702,61.2A178.592,178.592,0,0,1,722.917,73.823ZM586.765,60.4,623.2,83.58a39.283,39.283,0,0,0-7.818,13.26l-45-16.537A60.86,60.86,0,0,1,586.765,60.4Zm66.489,172.018,18.239-39a108.685,108.685,0,0,0,22.408,8.628l-1.3,42.971A153.332,153.332,0,0,1,653.254,232.418Zm133.927-48.3-24.805-15.9a54.146,54.146,0,0,0,.039-13.818l23.252,8.367A87.743,87.743,0,0,1,787.181,184.12Z" fill="#fafafa"/>
    </g>
    <g id="Group_6318" data-name="Group 6318" transform="translate(-10320.583 -3145.476)">
      <g id="Group_6315" data-name="Group 6315">
        <path id="Path_17401" data-name="Path 17401" d="M661.5,159.062H639.544v-56.9l12.514,10.884c3.4,3.139,9.443,8.839,9.443,21.863Z" fill="#fafafa"/>
      </g>
      <g id="Group_6316" data-name="Group 6316">
        <path id="Path_17402" data-name="Path 17402" d="M718.59,159.062h21.957V100.353l-12.518,12.693c-3.392,3.139-9.439,8.839-9.439,21.863Z" fill="#fafafa"/>
      </g>
      <g id="Group_6317" data-name="Group 6317">
        <path id="Path_17403" data-name="Path 17403" d="M783.775,62.249a1.183,1.183,0,0,0-1.183-1.184c-.141,0-.236.1-.365.15l-.038-.077a298.689,298.689,0,0,0-32.645,16.708q-14.609,8.877-28.1,18.792c-9.105,6.553-16.434,13.531-24.6,21.061-3.7,3.4-4.9,5.117-6.819,6.948-1.33,1.261-2.7-.845-2.7-.845s-6.163-7.05-9.919-9.971a82.547,82.547,0,0,0-14.594-9.113c-9.769-4.829-21.893-4.876-21.893-4.876,19.182,16.708,19.9,16.271,29.144,28.356,9.886,12.93,19.089,32.335,19.089,32.335,11.141-20.688,25.739-39.531,35.7-49.7,25.418-25.963,58.418-47.612,58.418-47.612l-.03-.055A1.113,1.113,0,0,0,783.775,62.249Z" fill="#fafafa"/>
      </g>
    </g>
  </g>
</svg>
