<svg xmlns="http://www.w3.org/2000/svg" width="32" height="32" viewBox="0 0 32 32">
  <g id="accounts" transform="translate(2139 7058)">
    <path id="Path_17669" data-name="Path 17669" d="M26,32H6a6,6,0,0,1-6-6V6A6,6,0,0,1,6,0H26a6,6,0,0,1,6,6V26A6,6,0,0,1,26,32Z" transform="translate(-2139 -7058)" fill="#f8f8f8"/>
    <path id="Path_17670" data-name="Path 17670" d="M16.833,8h-7A1.832,1.832,0,0,0,8,9.833V20.166A1.832,1.832,0,0,0,9.833,22h5.26l.133-.767a1.523,1.523,0,0,1,.413-.793l3.027-3.027V9.833A1.831,1.831,0,0,0,16.833,8ZM14,11.833a.5.5,0,0,1,.5-.5h1.667a.5.5,0,0,1,.5.5v4.5H14ZM10,14.5a.5.5,0,0,1,.5-.5h1.667a.5.5,0,0,1,.5.5v1.833H10ZM16.833,18h-7a.5.5,0,0,1,0-1h7a.5.5,0,0,1,0,1Z" transform="translate(-2139 -7058)" fill="#26c6da"/>
    <path id="Path_17671" data-name="Path 17671" d="M23.658,16.9l-.825-.825a1.017,1.017,0,0,0-1.532.118l-4.95,4.95a.508.508,0,0,0-.139.267l-.354,2a.5.5,0,0,0,.139.44.5.5,0,0,0,.354.146.638.638,0,0,0,.087-.007l2-.354a.494.494,0,0,0,.267-.139l4.95-4.95A1.168,1.168,0,0,0,23.658,16.9Z" transform="translate(-2139 -7058)" fill="#001e6f"/>
  </g>
</svg>
